<?xml version="1.0" encoding="utf-8"?>
<!-- Generator: Adobe Illustrator 25.0.1, SVG Export Plug-In . SVG Version: 6.00 Build 0)  -->
<svg version="1.1" id="Layer_1" xmlns="http://www.w3.org/2000/svg" xmlns:xlink="http://www.w3.org/1999/xlink" x="0px" y="0px"
	 viewBox="0 0 200 200" style="enable-background:new 0 0 200 200;" xml:space="preserve">
<style type="text/css">
	.st0{fill:#ffffff;}
</style>
<path class="st0" d="M172.7,92.7c-0.1,0.2-0.3,0.4-0.4,0.7c-0.7,0-1.5,0-2.2,0c-53.4,0-106.7,0-160.1,0c-0.7,0-1.4,0-2.1,0
	c-5,0.3-8.3,5.3-6.9,10c1.1,3.6,4,5.5,8.4,5.5c53.5,0,107.1,0,160.6,0c0.7,0,1.5,0,2.6,0c-0.7,0.8-1.2,1.3-1.7,1.8
	c-8.3,8.3-16.7,16.6-25,24.9c-3.4,3.4-3.6,8.2-0.4,11.4c3.1,3.1,7.8,3,11.3-0.3c2.3-2.2,4.5-4.5,6.7-6.7c11-10.9,22-21.9,33-32.8
	c3.5-3.5,3.8-8.1,0.5-11.4c-13.5-13.5-27.1-27.1-40.8-40.5c-1.2-1.2-3.1-1.9-4.8-2.2c-3.2-0.5-6.2,1.5-7.6,4.3
	c-1.4,3-0.8,6.4,1.7,8.9c8.3,8.3,16.7,16.6,25,24.9C171.3,91.9,172,92.3,172.7,92.7z"/>
</svg>
