<?xml version="1.0" encoding="utf-8"?>
<!-- Generator: Adobe Illustrator 25.0.1, SVG Export Plug-In . SVG Version: 6.00 Build 0)  -->
<svg version="1.1" id="Layer_1" xmlns="http://www.w3.org/2000/svg" xmlns:xlink="http://www.w3.org/1999/xlink" x="0px" y="0px"
	 viewBox="0 0 200 200" style="enable-background:new 0 0 200 200;" xml:space="preserve">
<style type="text/css">
	.st0{fill:#ffffff;}
</style>
<path class="st0" d="M24.5,36c0,46.6,0,92.9,0,139.4c46.4,0,92.8,0,139.5,0c0-1,0-2,0-2.9c0-14.3,0-28.5,0-42.8
	c0-8.7,6.1-13.6,14.5-11.9c4.5,0.9,7.6,4,8.4,8.6c0.3,1.5,0.4,3.1,0.4,4.6c0,14.3,0,28.5,0,42.8c0,15.4-9.8,25.2-25.2,25.2
	c-45.4,0-90.9,0-136.3,0c-12.1,0-21.3-6.9-23.9-17.9c-0.5-2.3-0.7-4.7-0.7-7c0-45.4,0-90.9,0-136.3c0-15.2,9.9-25,25.1-25
	c14.7,0,29.5-0.1,44.2,0c8.7,0,13.6,6.2,11.9,14.6c-1.1,5.3-5.3,8.6-11.3,8.6c-14.3,0.1-28.5,0-42.8,0C27,36,25.9,36,24.5,36z"/>
<path class="st0" d="M158.5,24.4c-1,0-1.9,0-2.9,0c-8.7,0-17.4,0.1-26.2,0c-8.4-0.1-13.2-6.1-11.7-14.4c0.9-5.1,5.1-8.9,10.6-8.9
	c20.1-0.1,40.2-0.1,60.2,0c5.7,0,10.4,4.9,10.4,10.6c0.1,19.9,0.1,39.8,0,59.7c0,6.3-4.4,10.7-10.5,11c-7,0.4-11.6-3.1-12.6-9.7
	c-0.2-1.4-0.2-2.9-0.2-4.3c0-9,0-18,0-27.6c-1.1,1.1-1.8,1.7-2.5,2.4c-19.5,19.5-39.1,39.1-58.6,58.6c-5.7,5.7-13.3,5.3-17.9-0.8
	c-3.3-4.3-3.2-9.9,0.3-14.1c0.8-0.9,1.6-1.7,2.4-2.6c19.1-19.1,38.2-38.2,57.3-57.2c0.7-0.7,1.6-1.2,2.4-1.8
	C158.8,25,158.7,24.7,158.5,24.4z"/>
</svg>
