<?xml version="1.0" encoding="utf-8"?>
<!-- Generator: Adobe Illustrator 25.0.1, SVG Export Plug-In . SVG Version: 6.00 Build 0)  -->
<svg version="1.1" id="Layer_1" xmlns="http://www.w3.org/2000/svg" xmlns:xlink="http://www.w3.org/1999/xlink" x="0px" y="0px"
	 viewBox="0 0 200 200" style="enable-background:new 0 0 200 200;" xml:space="preserve">
<style type="text/css">
	.st0{fill:#FFFFFF;}
	.st1{fill:#555555;}
</style>
<g>
	<path class="st0" d="M-44.1-29.8c92.5,0,185,0,277.5,0c0,80.7,0,161.5,0,242.2c-92.5,0-185,0-277.5,0
		C-44.1,131.6-44.1,50.9-44.1-29.8z M46.3,20.4c-0.6,0-1,0.1-1.4,0.1c-3.7,0.1-7.5-0.3-11.1,0.2c-12.9,1.7-21.5,11.7-21.6,24.9
		c0,40.2,0,80.4,0,120.5c0,1.6,0.1,3.3,0.4,4.8c2.3,12.1,12.1,20.2,24.4,20.2c42.4,0,84.8,0,127.2,0c14.8,0,25.4-10.5,25.4-25.4
		c0-39.9,0-79.9,0-119.8c0-1.7-0.1-3.5-0.4-5.2c-2.3-12.1-12.1-20.2-24.4-20.2c-3,0-6.1,0-9.3,0c0-2.3,0-4.4,0-6.4
		c-0.1-4.2-3-7.2-6.9-7.2c-3.9,0-6.7,3-6.8,7.3c0,2.1,0,4.2,0,6.2c-27.4,0-54.6,0-81.9,0c0-0.7,0-1.3,0-1.9c0-1.6,0-3.1,0-4.7
		c-0.1-3.9-2.9-6.8-6.6-6.9c-3.8-0.1-6.9,2.7-7,6.7C46.2,15.8,46.3,18.1,46.3,20.4z"/>
	<path class="st1" d="M46.3,20.4c0-2.4-0.1-4.6,0-6.9c0.2-3.9,3.3-6.8,7-6.7c3.7,0.1,6.5,3,6.6,6.9c0,1.6,0,3.1,0,4.7
		c0,0.6,0,1.2,0,1.9c27.3,0,54.5,0,81.9,0c0-2.1,0-4.2,0-6.2c0-4.3,2.8-7.3,6.8-7.3c3.9,0,6.8,3,6.9,7.2c0,2.1,0,4.2,0,6.4
		c3.2,0,6.3,0,9.3,0c12.3,0,22.1,8.1,24.4,20.2c0.3,1.7,0.4,3.5,0.4,5.2c0,39.9,0,79.9,0,119.8c0,14.9-10.6,25.4-25.4,25.4
		c-42.4,0-84.8,0-127.2,0c-12.3,0-22.1-8.1-24.4-20.2c-0.3-1.6-0.4-3.2-0.4-4.8c0-40.2,0-80.4,0-120.5c0-13.1,8.7-23.2,21.6-24.9
		c3.7-0.5,7.4-0.2,11.1-0.2C45.3,20.5,45.7,20.5,46.3,20.4z M46.3,34.2c-3.1,0-6,0-9,0c-7,0-11.5,4.5-11.5,11.5
		c0,40.1,0,80.2,0,120.4c0,7,4.6,11.4,11.6,11.4c42.3,0,84.7,0,127,0c0.9,0,1.8,0,2.7-0.2c5.6-1.1,8.9-5.5,8.9-11.8
		c0-39.8,0-79.5,0-119.3c0-0.8,0-1.7-0.1-2.5c-0.6-4.8-4.1-8.8-8.9-9.3c-3.7-0.4-7.5-0.1-11.5-0.1c0,2.2,0.1,4.4,0,6.5
		c-0.1,4.1-3.1,7.1-6.9,7c-3.8-0.1-6.7-3.1-6.7-7.2c0-2.1,0-4.2,0-6.3c-27.4,0-54.6,0-81.9,0c0,0.7,0,1.3,0,1.9c0,1.6,0,3.1,0,4.7
		c-0.1,4-3,7-6.7,7c-3.7,0.1-6.8-2.9-6.9-6.8C46.2,38.8,46.3,36.6,46.3,34.2z"/>
	<path class="st0" d="M61.6,102.4c-4.7,0.1-8.5,3.9-8.5,8.5c0,4.7,3.9,8.6,8.6,8.5c4.6,0,8.5-3.9,8.5-8.5
		C70.2,106.2,66.3,102.3,61.6,102.4z M70.2,145.1c0-4.7-3.9-8.6-8.6-8.6c-4.6,0-8.4,3.8-8.5,8.4c-0.1,4.7,3.8,8.6,8.5,8.7
		C66.3,153.6,70.2,149.7,70.2,145.1z M136.7,68.3c-4.8,0-8.5,3.8-8.4,8.7c0.1,4.7,3.9,8.4,8.6,8.3c4.8,0,8.5-3.9,8.4-8.7
		C145.2,71.9,141.4,68.3,136.7,68.3z M128.2,145.1c0,4.7,3.8,8.5,8.5,8.5c4.7,0,8.6-3.8,8.5-8.6c0-4.7-3.8-8.5-8.4-8.5
		C132.1,136.5,128.2,140.3,128.2,145.1z M61.6,68.3c-4.7,0-8.5,3.8-8.5,8.5c0,4.7,3.9,8.6,8.6,8.5c4.6,0,8.5-3.9,8.5-8.5
		C70.2,72.1,66.4,68.3,61.6,68.3z M145.2,111c0-4.8-3.8-8.6-8.5-8.6c-4.7,0-8.4,3.8-8.4,8.5c0,4.8,3.8,8.6,8.6,8.6
		C141.5,119.4,145.2,115.7,145.2,111z M107.7,145c0-4.6-3.8-8.5-8.5-8.5c-4.7-0.1-8.6,3.8-8.6,8.6c0,4.7,3.8,8.5,8.4,8.5
		C103.8,153.6,107.7,149.7,107.7,145z M107.7,76.8c0-4.7-3.7-8.5-8.4-8.5c-4.8-0.1-8.6,3.7-8.6,8.5c0,4.7,3.7,8.5,8.4,8.5
		C103.9,85.4,107.7,81.6,107.7,76.8z M90.7,111c0,4.7,3.8,8.5,8.5,8.5c4.7,0,8.6-3.9,8.6-8.6c0-4.7-3.8-8.4-8.5-8.5
		C94.5,102.4,90.7,106.2,90.7,111z"/>
	<path class="st1" d="M61.6,102.4c4.7-0.1,8.6,3.8,8.6,8.5c0,4.6-3.8,8.5-8.5,8.5c-4.7,0.1-8.6-3.9-8.6-8.5
		C53.1,106.3,56.9,102.5,61.6,102.4z"/>
	<path class="st1" d="M70.2,145.1c0,4.7-3.9,8.6-8.6,8.5c-4.7,0-8.6-4-8.5-8.7c0.1-4.6,3.9-8.4,8.5-8.4
		C66.3,136.5,70.2,140.4,70.2,145.1z"/>
	<path class="st1" d="M136.7,68.3c4.7,0,8.5,3.6,8.6,8.3c0.1,4.8-3.7,8.7-8.4,8.7c-4.7,0-8.5-3.7-8.6-8.3
		C128.2,72.2,131.9,68.3,136.7,68.3z"/>
	<path class="st1" d="M128.2,145.1c0-4.7,3.8-8.6,8.5-8.6c4.7,0,8.4,3.8,8.4,8.5c0,4.8-3.8,8.6-8.5,8.6
		C132,153.6,128.3,149.7,128.2,145.1z"/>
	<path class="st1" d="M61.6,68.3c4.8,0,8.6,3.8,8.6,8.5c0,4.6-3.8,8.5-8.5,8.5c-4.7,0-8.6-3.8-8.6-8.5
		C53.1,72.1,56.9,68.3,61.6,68.3z"/>
	<path class="st1" d="M145.2,111c0,4.7-3.8,8.5-8.4,8.5c-4.7,0-8.6-3.8-8.6-8.6c0-4.7,3.8-8.5,8.4-8.5
		C141.4,102.4,145.2,106.2,145.2,111z"/>
	<path class="st1" d="M107.7,145c0,4.7-3.9,8.6-8.6,8.6c-4.7-0.1-8.4-3.8-8.4-8.5c0-4.8,3.9-8.6,8.6-8.6
		C103.9,136.6,107.7,140.4,107.7,145z"/>
	<path class="st1" d="M107.7,76.8c0,4.7-3.9,8.5-8.6,8.5c-4.7,0-8.4-3.8-8.4-8.5c0-4.8,3.8-8.5,8.6-8.5
		C104,68.4,107.8,72.1,107.7,76.8z"/>
	<path class="st1" d="M90.7,111c0-4.8,3.8-8.6,8.5-8.6c4.7,0,8.5,3.8,8.5,8.5c0,4.7-3.8,8.6-8.6,8.6C94.5,119.5,90.7,115.7,90.7,111
		z"/>
</g>
</svg>
