<?xml version="1.0" encoding="utf-8"?>
<!-- Generator: Adobe Illustrator 25.0.1, SVG Export Plug-In . SVG Version: 6.00 Build 0)  -->
<svg version="1.1" id="Layer_1" xmlns="http://www.w3.org/2000/svg" xmlns:xlink="http://www.w3.org/1999/xlink" x="0px" y="0px"
	 viewBox="0 0 200 200" style="enable-background:new 0 0 200 200;" xml:space="preserve">
<style type="text/css">
	.st0{fill:#555555;}
</style>
<path class="st0" d="M80.3,117.8c-6.2,0-12,0-17.9,0c-5.1,0-8.7-2.7-9.9-7.3c-0.3-1.1-0.3-2.3-0.3-3.4c0-9.5,0-19.1,0-28.6
	c0-6.8,3.8-10.6,10.7-10.6c5,0,10.1,0,15.1,0c0.7,0,1.4,0,2.4,0c0-1,0-1.8,0-2.6c0.3-7.9-0.1-15.9,1.1-23.7
	c2.2-15.2,9.9-27.2,23.7-34.7c6.7-3.7,13.9-5.7,21.6-5.8c9.7,0,19.4,0.1,29-0.1c3.9-0.1,7.9,3.2,8.7,6.9c0.3,1.2,0.4,2.4,0.4,3.6
	c0,8.8,0,17.5,0,26.3c0,6.8-3.9,10.7-10.7,10.8c-5.8,0.1-11.6,0-17.4,0.1c-4.3,0.1-5.1,0.9-5.2,5.1c-0.1,4.6,0,9.3,0,14.1
	c0.8,0,1.5,0,2.2,0c6.4,0,12.8,0,19.2,0c7,0,10.9,3.9,10.9,10.9c0,9.4,0,18.8,0,28.3c0,7-3.9,10.9-11,10.9c-7,0-14.1,0-21.4,0
	c0,0.9,0,1.8,0,2.6c0,22.5,0,45,0,67.5c0,1.8-0.2,3.7-0.8,5.3c-1.6,3.8-4.6,5.9-8.7,5.9c-10.6,0.1-21.3,0.1-31.9,0
	c-5.2,0-9.1-3.8-9.5-9.1c-0.1-0.8-0.1-1.7-0.1-2.5c0-22.3,0-44.6,0-67C80.3,119.7,80.3,118.9,80.3,117.8z M119.7,187.4
	c0-1,0-1.8,0-2.6c0-23.6,0-47.2,0-70.8c0-5.5,2.3-7.8,7.7-7.8c7.5,0,15,0,22.4,0c0.7,0,1.4,0,2.1,0c0-9,0-17.8,0-26.7
	c-0.8,0-1.5,0-2.2,0c-7.6,0-15.2,0-22.8,0c-4.2,0-7.1-2.3-7.1-6.3c-0.1-7.4-0.3-14.9,0.3-22.2c0.6-8,5.1-12.6,13.1-13.6
	c5.3-0.6,10.8-0.4,16.2-0.6c1.2,0,2.4,0,3.6,0c0-8.3,0-16.4,0-24.4c-8.7,0-17.3-0.3-25.9,0.1c-8.4,0.3-16.2,3-22.7,8.7
	C96.2,28.4,92.7,38,92.2,48.7c-0.4,7.7-0.1,15.3-0.2,23c0,5.2-2.5,7.7-7.8,7.7c-6.1,0-12.1,0-18.2,0c-0.7,0-1.4,0-2.1,0
	c0,9,0,17.8,0,26.7c0.9,0,1.6,0,2.3,0c6.3,0,12.6,0,19,0c4,0,6.5,2.4,6.8,6.4c0,0.7,0,1.4,0,2.1c0,23.4,0,46.8,0,70.3
	c0,0.8,0,1.6,0,2.5C101.3,187.4,110.3,187.4,119.7,187.4z"/>
</svg>
