<?xml version="1.0" encoding="utf-8"?>
<!-- Generator: Adobe Illustrator 25.0.1, SVG Export Plug-In . SVG Version: 6.00 Build 0)  -->
<svg version="1.1" id="Layer_1" xmlns="http://www.w3.org/2000/svg" xmlns:xlink="http://www.w3.org/1999/xlink" x="0px" y="0px"
	 viewBox="0 0 200 200" style="enable-background:new 0 0 200 200;" xml:space="preserve">
<style type="text/css">
	.st0{fill:#ffffff;}
</style>
<path class="st0" d="M99.9,113.3c-27.9,0-55.7,0-83.6,0c-5.6,0-9.3-2.7-10.4-7.5c-1.2-5,2.3-10.3,7.3-11.2c1-0.2,2.1-0.2,3.1-0.2
	c55.7,0,111.4,0,167.1,0c6.6,0,10.9,4.1,10.7,10c-0.2,4.4-3.5,8.1-7.8,8.7c-1.1,0.2-2.2,0.2-3.3,0.2
	C155.4,113.3,127.6,113.3,99.9,113.3z"/>
<path class="st0" d="M100.1,160.4c27.9,0,55.8,0,83.8,0c5.2,0,8.8,2.4,10,6.7c1.7,5.9-2.4,11.7-8.6,12.1c-0.5,0-1,0-1.5,0
	c-55.8,0-111.7,0-167.5,0c-5.5,0-9.2-2.8-10.3-7.6c-1.2-5.3,2.7-10.7,8.2-11.2c0.9-0.1,1.8-0.1,2.8-0.1
	C44.6,160.4,72.4,160.4,100.1,160.4z"/>
<path class="st0" d="M100,47.3c-28,0-56,0-83.9,0c-5,0-8.6-2.4-9.9-6.6c-1.8-5.9,2.3-11.7,8.5-12.2c0.5,0,1,0,1.5,0
	c55.9,0,111.8,0,167.7,0c5.4,0,9.2,2.8,10.2,7.7c1.1,5.2-2.8,10.6-8.1,11.1c-1,0.1-2,0.1-2.9,0.1C155.4,47.3,127.7,47.3,100,47.3z"
	/>
</svg>
