<?xml version="1.0" encoding="utf-8"?>
<!-- Generator: Adobe Illustrator 25.0.1, SVG Export Plug-In . SVG Version: 6.00 Build 0)  -->
<svg version="1.1" id="Layer_1" xmlns="http://www.w3.org/2000/svg" xmlns:xlink="http://www.w3.org/1999/xlink" x="0px" y="0px"
	 viewBox="0 0 200 200" style="enable-background:new 0 0 200 200;" xml:space="preserve">
<style type="text/css">
	.st0{fill:#555555;}
</style>
<g>
	<g>
		<g>
			<path class="st0" d="M151.6,199.6c-1.2,0-2.6-0.1-4-0.2l-0.3,0c-12.5-1-25-4.9-40.5-12.6c-19-9.5-36.1-21.5-50.7-35.8
				C31.6,127,15,101.9,5.4,74.1c-3.2-9.2-4.6-17.4-4.6-26.5C0.6,38.1,4.6,29,12,21.9c1.8-1.7,3.5-3.5,5.2-5.3
				c3.1-3.2,6.3-6.5,9.9-9.6c5.1-4.4,10.5-6.6,16-6.6c5.8,0,11.3,2.5,16.4,7.4c8.2,7.7,16.6,16.2,25.7,26c8.3,8.8,8.3,20.8,0.1,29.9
				c-3.5,4.2-7.8,8.4-11.5,12c-0.1,0.1-1.3,1.3-2.3,2.2c5,10,12.2,18.4,18.7,25.4c8.2,8.8,16.5,15.8,25.4,21.4
				c1.1,0.7,2.2,1.3,3.3,1.9c0.4,0.2,0.9,0.5,1.3,0.7c0.4,0.2,0.9,0.5,1.3,0.7c0.2,0.1,0.4,0.2,0.6,0.3c2.6-2.7,5.2-5.3,7.8-7.8
				c1.3-1.3,2.6-2.5,3.8-3.8c2.8-2.8,7.2-6.6,13.5-7.7c1.3-0.2,2.7-0.3,4-0.3c5.8,0,11.1,2.2,15.6,6.7c1.4,1.4,2.8,2.8,4.1,4.1
				c2.7,2.7,5.5,5.5,8.2,8.2c0,0,1.9,1.9,2.9,2.9c3,3,6,6.1,9.1,9c10.2,10,10.8,23.4,1.4,33.3c-5.7,6.1-11.8,12.5-18.3,18.4
				C168.4,196.9,161,199.6,151.6,199.6z M42.8,18.3c-1.4,0-3,0.9-4.7,2.7l-2.5,2.5c-1.1,1.1-2.1,2.1-3.2,3.2c-2.7,2.6-5.4,5.3-8,8.1
				c-1.9,2.1-3.5,4.5-4.5,6.8c-2.3,5.4-1.4,11.5-0.3,16.7c2.1,10.7,6.3,21.6,12.8,33.1c21.8,38.5,52.4,66.6,90.8,83.6
				c9.9,4.4,19.1,6.7,27.9,7l0.6,0c5,0,8.9-1.4,11.9-4.3c5.3-5.2,10.8-10.7,16.1-16.5c2.5-2.7,2.4-5-0.1-7.5
				c-7.6-7.8-15.7-15.9-25.5-25.5c-0.9-0.9-2-1.4-3-1.4c-1.1,0-2.2,0.4-3.3,1.3c-0.6,0.5-1.3,1.1-2.1,1.9l-13.8,13.8
				c-2.6,2.6-5.5,3.9-8.7,3.9c-1.9,0-4-0.5-6.1-1.6l-0.8-0.4l-1.3-0.7c-2.1-1.1-4.3-2.2-6.4-3.5c-11.8-7.1-22.7-16.3-33.3-28
				c-6.9-7.6-15.5-18-21.2-30.7c-2.9-6.4-2-11,3.1-15.8c1.2-1.1,2.3-2.3,3.5-3.4c3.4-3.4,6.7-6.5,10-9.9c3.8-3.9,3.8-5.8,0-9.7
				l-5.8-5.9C59.3,32.5,53.5,26.7,47.7,21c-1-1-2-1.8-3-2.3C44,18.5,43.4,18.3,42.8,18.3z"/>
		</g>
	</g>
</g>
</svg>
