<?xml version="1.0" encoding="utf-8"?>
<!-- Generator: Adobe Illustrator 25.0.1, SVG Export Plug-In . SVG Version: 6.00 Build 0)  -->
<svg version="1.1" id="Layer_1" xmlns="http://www.w3.org/2000/svg" xmlns:xlink="http://www.w3.org/1999/xlink" x="0px" y="0px"
	 viewBox="0 0 200 200" style="enable-background:new 0 0 200 200;" xml:space="preserve">
<style type="text/css">
	.st0{fill:#555555;}
</style>
<path class="st0" d="M197.8,101.9c-0.5,17.9-6,34.4-16.4,49.3c-2.5,3.6-7.1,4.6-10.7,2.4c-3.7-2.2-4.6-6.6-2.1-10.3
	c6.6-9.5,11.1-19.8,12.8-31.1c3.7-23.5-2.6-44.5-18.7-62.7c-13.3-14.9-30.4-24.1-50.9-26.7C81,19,55.3,28.5,35.4,51.1
	C22,66.2,16.2,84,17,103.6c1.3,32.9,25.9,62.5,59.6,71.4c22.9,6.1,44.7,3.4,65.3-7.8c2.9-1.6,5.8-1.9,8.7-0.2
	c2.5,1.5,3.7,3.8,3.5,6.6c-0.2,2.7-1.7,4.6-4.1,6c-11.1,6.2-23,10.3-35.8,12c-27.4,3.6-52.3-2.2-74.3-18.2
	c-21.7-15.8-34.5-36.7-37.7-62.5c-5.1-41.4,19-80.3,59.4-96.3c57.3-22.7,122.4,10,134.2,67.7c1.3,6.4,1.6,13,2.4,19.5
	C198.2,101.8,198,101.8,197.8,101.9z"/>
<path class="st0" d="M67.5,100c0-6.8,0-13.6,0-20.4c0-12.5,13.2-19.7,24.6-13.5c12.4,6.7,24.9,13.5,37.2,20.4
	c11.7,6.4,11.7,20.6,0,27.1c-12.4,6.8-24.8,13.6-37.2,20.4c-11.4,6.2-24.6-1-24.6-13.5C67.5,113.6,67.5,106.8,67.5,100z M82.8,99.9
	c0,6.6,0,13.3,0,19.9c0,2.2,0.3,2.3,2.2,1.3c12-6.6,24.1-13.1,36.1-19.7c2-1.1,2.1-1.5,0.1-2.6c-12-6.6-24.1-13.1-36.1-19.7
	c-2-1.1-2.3-0.9-2.3,1.4C82.8,86.9,82.8,93.4,82.8,99.9z"/>
</svg>
