<?xml version="1.0" encoding="utf-8"?>
<!-- Generator: Adobe Illustrator 25.0.1, SVG Export Plug-In . SVG Version: 6.00 Build 0)  -->
<svg version="1.1" id="Layer_1" xmlns="http://www.w3.org/2000/svg" xmlns:xlink="http://www.w3.org/1999/xlink" x="0px" y="0px"
	 viewBox="0 0 200 200" style="enable-background:new 0 0 200 200;" xml:space="preserve">
<style type="text/css">
	.st0{fill:#555555;}
</style>
<g>
	<path class="st0" d="M130.5,146.4c-20.6,13.8-42.6,18-66.1,12c-19.4-4.9-34.9-16-46.1-32.6C-4.4,92.4,0.7,47,33.2,19.7
		c30-25.2,72.9-24.8,102.7,0.2c32.7,27.5,38.9,77.2,9.8,112.5c0.5,0.5,1,1.1,1.5,1.6c14.9,15.5,29.8,31,44.8,46.6
		c4,4.2,4.8,8.9,2.2,13.4c-3.2,5.5-10.7,6.8-15.5,2.7c-0.8-0.7-1.5-1.4-2.2-2.1c-14.9-15.5-29.9-31-44.8-46.6
		C131.2,147.5,130.9,146.9,130.5,146.4z M84.3,21.9c-32.5,0.1-59,26.6-59,59.1c0.1,32.6,26.5,59,59,59c32.6,0,59.3-26.7,59.1-59.2
		C143.2,48.2,116.8,21.8,84.3,21.9z"/>
</g>
</svg>
