<?xml version="1.0" encoding="utf-8"?>
<!-- Generator: Adobe Illustrator 25.0.1, SVG Export Plug-In . SVG Version: 6.00 Build 0)  -->
<svg version="1.1" id="Layer_1" xmlns="http://www.w3.org/2000/svg" xmlns:xlink="http://www.w3.org/1999/xlink" x="0px" y="0px"
	 viewBox="0 0 200 200" style="enable-background:new 0 0 200 200;" xml:space="preserve">
<style type="text/css">
	.st0{fill:#555555;}
</style>
<path class="st0" d="M34.2,146.3c-2.2-1.3-4-2.3-5.7-3.4c-8.6-5.7-13.8-13.9-17-23.6c-1.3-3.9,0.6-8.2,4.3-10.4
	c0.5-0.3,1.1-0.6,1.7-0.9c-2.1-3.1-4.5-6-6.3-9.2c-2.3-4.4-4.4-9-6.1-13.6C3.2,80,6.8,74.4,12.2,73.3c0.4-0.1,0.9-0.1,1.5-0.2
	c-0.9-2.6-1.8-5.1-2.6-7.7C7.3,52.2,10,40,16.5,28.4c2.3-4.1,7.3-4.7,10.8-1.4c3.2,3,6.2,6.2,9.4,9.1c12,11.2,26,18.8,41.8,23.2
	c3.8,1,7.5,2,11.3,3c0.8-3.2,1.3-6.4,2.3-9.3c5.7-16.5,16.9-27.2,33.8-31.7c8.5-2.2,16.8-1.2,24.9,2.1c3.5,1.5,7,3.2,10.5,4.7
	c0.9,0.4,2.1,0.5,3,0.2c6.2-2.3,12.3-4.8,18.4-7.3c3.7-1.5,7.1-1.1,10.1,1.5c2.9,2.5,3.7,6.3,2.2,10.4c-0.5,1.3-1,2.6-1.6,4.1
	c3.1,1.7,5.1,4.3,5.2,7.8c0,2.4-0.6,4.8-1.4,7.1c-2.6,6.8-6.8,12.5-12.8,16.7c-1.2,0.8-1.2,1.8-1.3,3c-0.4,14.2-3.2,28-8.5,41.2
	c-11.8,29-31.5,50.6-60.7,63c-12.5,5.3-25.6,7.5-39.1,7.3c-13.9-0.2-27.7-1.1-41.3-4.1c-8.8-1.9-17.4-4.4-25.1-9.4
	c-1.8-1.2-3.7-2.6-5-4.4c-4.4-6.1-0.6-14.6,6.8-15.5c4.4-0.5,8.8-0.6,13.2-1.1C26.9,147.9,30.3,147.1,34.2,146.3z M17.1,161
	c5.6,3,11.6,4.8,17.8,6.2c13.7,3.1,27.5,4.1,41.5,4.1c13.1,0.1,25.8-2.7,37.6-8.4c24.8-12.1,41.2-31.7,50.9-57.2
	c4.7-12.3,6.7-25.1,6.8-38.3c0-3.3,1.3-5.6,4.1-7.3c1.8-1.1,3.6-2.5,5.1-4c2.1-2,3.8-4.4,4.8-7.3c-6.2,0.1-9.8-6.1-6-11.4
	c0.7-0.9,1.2-1.9,2.1-3.3c-1.1,0.4-1.7,0.5-2.2,0.8c-4.5,1.7-9,3.3-13.5,5.1c-2.8,1.1-5.4,0.9-8.1-0.5c-3.7-1.9-7.4-3.8-11.3-5.2
	c-3.6-1.2-7.4-2.4-11.2-2.5c-8.5,0-15.9,3.2-22.1,9c-7.7,7.2-11.6,16.1-12,26.6c-0.2,5.1-3.6,8.2-8.4,7.3c-10.7-2.1-21.2-4.9-31.4-9
	c-13.2-5.3-24.6-13.2-34.8-23c-1-0.9-1.9-1.8-3-2.8c-3.5,8.7-3.8,17.3-0.5,25.9c1.9,4.9,4.8,9.2,8.1,13.3c2.3,2.9,2.4,6,0.6,8.5
	c-1.9,2.7-4.8,3.5-8.4,2.4c-1.6-0.5-3.2-1.1-4.8-1.7c-0.1,0.1-0.3,0.3-0.4,0.4c2.1,3.2,4.1,6.6,6.4,9.7c3.6,4.8,8.1,8.7,12.9,12.3
	c3.1,2.3,4,5.5,2.7,8.5c-1.3,3.1-4.2,4.5-7.9,4c-2.5-0.4-5-0.9-7.6-1.4c2.6,5.3,6.3,9.5,11.2,12.5c4,2.4,8.4,3.7,13,4.7
	c3.5,0.8,5.7,3,6,6.1c0.3,2.9-1.3,5.5-4.3,7.1c-5.6,2.9-11.5,5.2-17.7,6.4C27.8,159.4,22.5,160.1,17.1,161z"/>
</svg>
