<?xml version="1.0" encoding="utf-8"?>
<!-- Generator: Adobe Illustrator 25.0.1, SVG Export Plug-In . SVG Version: 6.00 Build 0)  -->
<svg version="1.1" id="Layer_1" xmlns="http://www.w3.org/2000/svg" xmlns:xlink="http://www.w3.org/1999/xlink" x="0px" y="0px"
	 viewBox="0 0 200 200" style="enable-background:new 0 0 200 200;" xml:space="preserve">
<style type="text/css">
	.st0{fill:#555555;}
</style>
<path class="st0" d="M104.1,26.7c17,0.6,38.3,1.4,59.6,2.2c6.7,0.3,13.2,1.7,18.9,5.5c7.5,5,11.5,12.2,12.9,20.8
	c1.2,7.3,1.9,14.7,2.3,22.1c0.9,18.4,0.7,36.8-0.3,55.2c-0.5,8-1.4,16-4.6,23.4c-4.4,10.2-12.4,16.2-23.3,17.4
	c-11.1,1.2-22.4,1.5-33.6,2c-27.6,1.2-55.1,0.7-82.7-0.5c-8.5-0.3-17.1-0.8-25.4-2.3c-13-2.2-20.4-10.6-23.5-23.1
	c-2-7.8-2.2-15.9-2.6-23.8C0.9,107.4,1,89.1,2,70.8C2.5,62.7,3.4,54.6,6.7,47c4.4-10,12.3-16,23-17.3c9.5-1.2,19-1.5,28.6-1.9
	C72.1,27.3,86,27.1,104.1,26.7z M104.1,38.2c-18.1,0.4-31.8,0.7-45.6,1.1c-8.5,0.3-16.9,0.7-25.3,1.4c-8.1,0.7-13.9,4.7-16.6,12.7
	c-2.1,6-2.6,12.1-3,18.3c-1,17.6-1.1,35.2-0.3,52.9c0.3,7.7,0.3,15.5,2.6,23c1,3.3,2.2,6.5,4.8,9c3.5,3.3,7.8,4.7,12.4,5.1
	c6.7,0.6,13.4,1.2,20.1,1.5c31.1,1.2,62.2,1.5,93.3,0.1c7.4-0.3,14.7-0.7,22-1.5c6.8-0.8,11.6-4.6,14.1-11.2
	c2.4-6.3,3-12.8,3.4-19.4c1-17.5,1.1-35,0.3-52.5c-0.3-7.9-0.3-15.8-2.6-23.4c-1.2-4-2.8-7.8-6.3-10.5c-4.2-3.2-9-4.2-14.1-4.4
	C142.1,39.6,120.9,38.8,104.1,38.2z"/>
<path class="st0" d="M74.7,99.5c0-7.6,0-15.1,0-22.7c0-7.3,6.2-11,12.6-7.5c14,7.6,28,15.3,42,23c5.3,2.9,6.5,8.6,2.8,12.7
	c-0.8,0.9-1.9,1.7-3.1,2.3c-13.9,7.5-27.7,15-41.6,22.4c-6.7,3.6-12.7-0.1-12.7-7.7C74.7,114.5,74.7,107,74.7,99.5z M86.4,82
	c0,11.8,0,23.3,0,35.1c10.8-5.8,21.4-11.5,32.3-17.4C107.8,93.7,97.2,87.9,86.4,82z"/>
</svg>
